<?xml version="1.0" standalone="no"?>
<!DOCTYPE svg PUBLIC "-//W3C//DTD SVG 20010904//EN"
 "http://www.w3.org/TR/2001/REC-SVG-20010904/DTD/svg10.dtd">
<svg version="1.0" xmlns="http://www.w3.org/2000/svg"
 width="512.000000pt" height="512.000000pt" viewBox="0 0 512.000000 512.000000"
 preserveAspectRatio="xMidYMid meet">
<metadata>
Created by potrace 1.14, written by Peter Selinger 2001-2017
</metadata>
<g transform="translate(0.000000,512.000000) scale(0.100000,-0.100000)"
fill="#000000" stroke="none">
<path d="M1212 5028 c-5 -7 -14 -40 -20 -73 -6 -33 -14 -73 -17 -90 -30 -163
-45 -245 -50 -270 -2 -16 -7 -41 -10 -55 -26 -131 -32 -188 -16 -160 5 8 48
153 96 322 74 257 86 309 75 322 -15 19 -44 21 -58 4z"/>
<path d="M1814 4832 c-17 -15 -75 -68 -130 -119 -55 -50 -109 -100 -121 -111
-12 -10 -71 -64 -130 -119 -59 -55 -128 -118 -152 -140 -24 -22 -40 -43 -34
-46 7 -5 187 133 374 286 15 12 81 65 147 117 66 52 122 102 125 111 6 22 -11
49 -31 49 -9 0 -31 -13 -48 -28z"/>
<path d="M3017 4503 c-8 -18 1 -35 63 -120 36 -48 104 -141 150 -205 47 -64
89 -117 94 -117 4 -1 2 9 -6 22 -8 12 -70 113 -138 225 -87 143 -128 202 -141
202 -10 0 -20 -3 -22 -7z"/>
<path d="M1668 4236 c-170 -61 -308 -114 -308 -117 0 -9 33 0 544 133 94 24
120 44 100 75 -6 9 -15 18 -20 19 -5 1 -147 -48 -316 -110z"/>
<path d="M534 4269 c-173 -53 -284 -203 -289 -388 -10 -341 364 -545 651 -355
148 98 217 300 161 475 -17 54 -74 144 -115 181 -108 96 -267 130 -408 87z
m416 -453 c0 -62 -49 -145 -102 -172 -17 -9 -49 -16 -70 -16 -39 1 -128 29
-128 41 1 6 280 170 293 170 4 1 7 -10 7 -23z"/>
<path d="M2614 4195 c-18 -13 -18 -15 -3 -30 13 -14 585 -214 612 -215 21 0 2
18 -30 29 -21 8 -56 22 -78 32 -33 15 -204 85 -436 179 -40 16 -49 17 -65 5z"/>
<path d="M3754 4165 c-201 -47 -335 -208 -337 -405 0 -94 5 -120 42 -195 69
-141 208 -228 369 -234 116 -4 222 39 306 125 145 146 164 368 47 538 -92 133
-275 206 -427 171z m116 -670 c0 -19 -80 -85 -104 -86 -42 -2 -72 3 -93 17
-27 17 -64 56 -59 61 2 2 48 7 102 10 55 3 100 6 101 7 10 8 53 1 53 -9z"/>
<path d="M2703 3792 c-45 -3 -62 -24 -41 -49 8 -11 25 -13 62 -9 28 3 78 8
111 11 33 3 80 8 105 10 25 3 81 8 125 11 44 4 87 8 95 10 8 1 21 3 29 3 8 1
11 4 8 8 -7 6 -415 11 -494 5z"/>
<path d="M950 3395 c-160 -35 -300 -115 -422 -241 -172 -177 -250 -279 -313
-407 -186 -379 -41 -681 405 -841 100 -36 257 -76 300 -76 97 0 163 115 111
193 -28 43 -56 58 -144 77 -371 83 -527 224 -469 425 15 51 66 158 100 208
l19 28 58 -138 c32 -76 82 -201 111 -278 60 -159 50 -150 205 -180 118 -22
162 -51 194 -127 47 -115 -34 -254 -155 -266 -41 -4 -50 -8 -46 -21 40 -137
40 -162 0 -416 -28 -177 -110 -417 -196 -575 -59 -108 -111 -183 -197 -285
-42 -49 -84 -106 -93 -125 -35 -67 -14 -174 43 -227 55 -50 151 -62 223 -28
111 53 370 442 476 716 31 81 86 250 94 293 3 12 14 62 25 111 11 50 23 122
27 160 3 39 8 77 10 85 1 8 3 22 3 29 2 34 20 -8 25 -59 45 -405 10 -747 -105
-1038 -34 -85 -37 -147 -10 -200 24 -47 45 -66 100 -91 89 -39 190 -7 243 79
44 73 138 385 153 515 4 28 8 61 11 75 23 139 23 561 0 700 -3 14 -7 47 -11
73 -3 26 -10 69 -15 95 -4 26 -11 85 -15 132 -14 200 -24 302 -30 308 -2 2
-18 -6 -34 -17 -38 -27 -114 -40 -161 -28 -151 39 -189 248 -62 343 20 16 42
33 48 39 6 5 40 36 76 68 l66 57 -15 73 c-23 115 -23 118 -45 212 -36 159 -47
210 -44 213 2 1 37 -20 79 -48 167 -112 222 -226 169 -350 -28 -65 -100 -156
-179 -225 -162 -143 -176 -164 -154 -235 16 -53 62 -85 122 -85 38 0 54 7 100
42 196 152 339 332 378 479 46 172 -11 340 -167 489 -124 118 -384 251 -569
289 -84 18 -243 18 -323 1z"/>
<path d="M4159 3275 c-235 -48 -335 -295 -207 -512 l23 -38 5 131 c5 121 7
134 32 171 76 114 254 107 329 -13 24 -38 24 -43 24 -274 -1 -242 -10 -421
-30 -605 -2 -22 -7 -67 -11 -100 -3 -33 -9 -78 -13 -101 -4 -22 -4 -50 0 -61
4 -12 11 -41 14 -65 4 -23 9 -46 11 -50 3 -4 -8 -15 -23 -25 -15 -9 -29 -18
-31 -19 -4 -2 -31 -104 -38 -139 -12 -65 -18 -84 -37 -117 -43 -79 -157 -119
-238 -85 l-36 15 -32 -49 c-68 -104 -151 -324 -166 -439 -2 -14 -9 -56 -15
-95 -11 -66 -15 -337 -7 -380 3 -11 8 -47 11 -80 11 -99 32 -157 68 -192 87
-85 208 -83 286 4 51 57 57 98 37 236 -43 309 1 561 133 757 105 155 242 251
472 331 158 55 240 147 260 289 7 51 -1 108 -45 301 -14 63 -85 284 -130 402
-120 322 -282 643 -362 720 -72 71 -183 103 -284 82z"/>
<path d="M2745 3161 c-88 -40 -105 -153 -31 -214 62 -52 257 -133 406 -169 93
-22 95 -22 160 -33 25 -4 53 -9 62 -11 84 -15 425 -22 483 -10 11 3 33 5 48 5
l28 1 -20 38 c-38 69 -51 114 -51 171 l0 56 -70 -5 c-38 -3 -118 -4 -177 -4
-271 5 -481 49 -657 139 -108 55 -130 59 -181 36z"/>
<path d="M4113 3034 c-59 -29 -67 -54 -69 -199 -4 -238 -15 -480 -29 -620 -14
-134 -16 -152 -22 -190 -3 -22 -7 -47 -8 -55 -2 -8 -6 -37 -10 -65 -3 -27 -20
-113 -37 -190 -40 -180 -40 -196 -5 -236 62 -73 163 -70 212 5 18 27 46 125
69 241 22 109 23 112 31 175 4 30 9 64 11 75 2 11 6 40 9 65 3 25 7 61 10 80
2 19 7 69 10 110 4 41 8 100 11 130 3 30 7 173 9 317 4 292 1 307 -64 350 -40
27 -83 29 -128 7z"/>
</g>
</svg>
